<svg xmlns="http://www.w3.org/2000/svg" viewBox="0 0 720 260" role="img" aria-label="OpenRouter daily spend over the last 30 days" style="font:12px -apple-system,BlinkMacSystemFont,Segoe UI,Roboto,sans-serif">
<rect width="720" height="260" fill="#fafafa" stroke="#e5e5e5"/>
<line x1="52" y1="208.0" x2="708" y2="208.0" stroke="#e5e5e5"/>
<text x="46" y="212.0" text-anchor="end" fill="#666">$0.00</text>
<line x1="52" y1="162.0" x2="708" y2="162.0" stroke="#e5e5e5"/>
<text x="46" y="166.0" text-anchor="end" fill="#666">$0.50</text>
<line x1="52" y1="116.0" x2="708" y2="116.0" stroke="#e5e5e5"/>
<text x="46" y="120.0" text-anchor="end" fill="#666">$1.00</text>
<line x1="52" y1="70.0" x2="708" y2="70.0" stroke="#e5e5e5"/>
<text x="46" y="74.0" text-anchor="end" fill="#666">$1.50</text>
<line x1="52" y1="24.0" x2="708" y2="24.0" stroke="#e5e5e5"/>
<text x="46" y="28.0" text-anchor="end" fill="#666">$2.00</text>
<rect x="55.3" y="208.0" width="15.3" height="0.0" fill="#ff6600" rx="1"/>
<rect x="77.1" y="208.0" width="15.3" height="0.0" fill="#ff6600" rx="1"/>
<rect x="99.0" y="208.0" width="15.3" height="0.0" fill="#ff6600" rx="1"/>
<rect x="120.9" y="208.0" width="15.3" height="0.0" fill="#ff6600" rx="1"/>
<rect x="142.7" y="208.0" width="15.3" height="0.0" fill="#ff6600" rx="1"/>
<rect x="164.6" y="208.0" width="15.3" height="0.0" fill="#ff6600" rx="1"/>
<rect x="186.5" y="208.0" width="15.3" height="0.0" fill="#ff6600" rx="1"/>
<rect x="208.3" y="208.0" width="15.3" height="0.0" fill="#ff6600" rx="1"/>
<rect x="230.2" y="208.0" width="15.3" height="0.0" fill="#ff6600" rx="1"/>
<rect x="252.1" y="208.0" width="15.3" height="0.0" fill="#ff6600" rx="1"/>
<rect x="273.9" y="208.0" width="15.3" height="0.0" fill="#ff6600" rx="1"/>
<rect x="295.8" y="208.0" width="15.3" height="0.0" fill="#ff6600" rx="1"/>
<rect x="317.7" y="208.0" width="15.3" height="0.0" fill="#ff6600" rx="1"/>
<rect x="339.5" y="208.0" width="15.3" height="0.0" fill="#ff6600" rx="1"/>
<rect x="361.4" y="208.0" width="15.3" height="0.0" fill="#ff6600" rx="1"/>
<rect x="383.3" y="208.0" width="15.3" height="0.0" fill="#ff6600" rx="1"/>
<rect x="405.1" y="208.0" width="15.3" height="0.0" fill="#ff6600" rx="1"/>
<rect x="427.0" y="208.0" width="15.3" height="0.0" fill="#ff6600" rx="1"/>
<rect x="448.9" y="208.0" width="15.3" height="0.0" fill="#ff6600" rx="1"/>
<rect x="470.7" y="208.0" width="15.3" height="0.0" fill="#ff6600" rx="1"/>
<rect x="492.6" y="208.0" width="15.3" height="0.0" fill="#ff6600" rx="1"/>
<rect x="514.5" y="208.0" width="15.3" height="0.0" fill="#ff6600" rx="1"/>
<rect x="536.3" y="208.0" width="15.3" height="0.0" fill="#ff6600" rx="1"/>
<rect x="558.2" y="208.0" width="15.3" height="0.0" fill="#ff6600" rx="1"/>
<rect x="580.1" y="208.0" width="15.3" height="0.0" fill="#ff6600" rx="1"/>
<rect x="601.9" y="208.0" width="15.3" height="0.0" fill="#ff6600" rx="1"/>
<rect x="623.8" y="208.0" width="15.3" height="0.0" fill="#ff6600" rx="1"/>
<rect x="645.7" y="110.9" width="15.3" height="97.1" fill="#ff6600" rx="1"/>
<rect x="667.5" y="176.5" width="15.3" height="31.5" fill="#ff6600" rx="1"/>
<rect x="689.4" y="204.3" width="15.3" height="3.7" fill="#ff6600" rx="1"/>
<text x="62.9" y="226" text-anchor="middle" fill="#666">26/03</text>
<text x="172.3" y="226" text-anchor="middle" fill="#666">31/03</text>
<text x="281.6" y="226" text-anchor="middle" fill="#666">05/04</text>
<text x="390.9" y="226" text-anchor="middle" fill="#666">10/04</text>
<text x="500.3" y="226" text-anchor="middle" fill="#666">15/04</text>
<text x="609.6" y="226" text-anchor="middle" fill="#666">20/04</text>
<text x="697.1" y="226" text-anchor="middle" fill="#666">24/04</text>
<text x="52" y="250" fill="#666">Last 30 days: $1.44 · limit $50.00</text>
</svg>